<?xml version="1.0" encoding="utf-8"?>
<svg version="1.1" xmlns="http://www.w3.org/2000/svg" xmlns:xlink="http://www.w3.org/1999/xlink" x="0px" y="0px" viewBox="0 0 274.7 215.1"
	 style="enable-background:new 0 0 274.7 215.1;" xml:space="preserve">
<path class="st0" d="M181.4,104.9c0-7.8,0.3-15.1-0.1-22.4c-0.2-2.8-1.4-5.5-3.3-7.6c-11.8-11.8-23.8-23.3-35.8-34.9
	c-0.8-0.8-1.7-1.5-3.4-3v67.4H114V1.8c7.9,0,15.5-0.2,23.1,0.2c1.8,0.1,3.8,1.9,5.2,3.3c11.9,11.4,23.7,22.9,35.6,34.4
	c0.8,0.8,1.7,1.5,3.3,2.9V2.1h25.4c0.1,1.5,0.2,3.1,0.2,4.7c0,31-0.1,62,0.1,93c0,4.3-1.3,5.4-5.4,5.2
	C195,104.8,188.5,104.9,181.4,104.9z"/>
<path class="st0" d="M53.9,0c29.9,0.2,53.1,23.9,53,54c-0.1,28.9-24.6,53-53.5,52.8C24.1,106.5-0.1,82.3,0,53.2
	C0.1,23.7,24.1-0.1,53.6,0C53.7,0,53.8,0,53.9,0z M53.1,81.3c15.5,0.2,28.3-12.1,28.5-27.7C81.9,38.1,69.5,25.4,54,25.1
	S25.7,37.3,25.5,52.8c0,0.1,0,0.3,0,0.4C25.4,68.6,37.7,81.2,53.1,81.3C53.1,81.3,53.1,81.3,53.1,81.3z"/>
<path class="st0" d="M238.7,23.9v29.4h18.9c4.3,0,8.7,0.1,13,0c3-0.1,4.2,0.9,4.1,4c-0.2,4.5-0.2,9,0,13.5c0.2,3.9-1,5.3-5,5.2
	c-9-0.3-18-0.1-27-0.1c-1.1,0-2.3,0.2-3.8,0.3v6.3h35.7c0,7.1,0.1,13.7-0.1,20.3c-0.4,1.1-1.4,1.9-2.5,2.2
	c-19.3,0.1-38.6,0.1-58.4,0.1V2.1h61c0,6.6,0.1,13.2-0.2,19.8c0,0.7-2.7,1.9-4.2,1.9C259.9,24,249.6,23.9,238.7,23.9z"/>
<path class="st0" d="M91.3,212.9v-90.6h54.1v19.2h-31.4v26.3h31.4v19.6H114v6.2h31.5v19.4H91.3z"/>
<path class="st0" d="M220.2,122.1h54v19.3h-31.3v26.4h31.4v19.6h-31.1c-1.6,4.7-0.6,6.5,4,6.4c8.9-0.2,17.9-0.1,27.1-0.1V213h-54.1
	V122.1z"/>
<path class="st0" d="M22.6,213.1H0.3v-91.2c15,0.7,30.4-3.1,43.8,7c10.6,8,14.6,18.9,12.5,31.6c-2.1,12.2-9.7,20.5-21.4,24.7
	c-2.8,1-5.7,1.7-8.7,1.9c-3.2,0.2-3.9,1.5-3.8,4.4C22.7,198.5,22.6,205.5,22.6,213.1z M22.9,142.3v25.1c9.2-0.1,14.8-5.4,14.5-13.4
	C37.1,147.3,30.5,140.8,22.9,142.3z"/>
<path class="st0" d="M213.9,122.6v24.5c-7.6-4.3-15.4-6.1-23.1-2.7c-4.7,2-8.8,5.2-12,9.2c-6.8,8.8-6.2,20.6,0.3,29.2
	c7.6,10.1,17.6,11.9,34.9,5.9c0,7.3,0.1,14.4-0.2,21.5c0,1.1-1.9,2.8-3.3,3.2c-22.4,6.7-47.6-6.2-55.8-28.6
	c-6.7-18.4-3.5-35.4,9.8-49.5S194.7,117.2,213.9,122.6z"/>
<path class="st0" d="M85.3,213.4c-6.6,0-12.8,0-18.9,0c-1-0.1-2.1-0.2-3.1-0.4v-90.8h22.1V213.4z"/>
</svg>
