<svg xmlns="http://www.w3.org/2000/svg" viewBox="0 0 526.31 178.27"><defs><style>.cls-1{fill:#2f5596;}</style></defs><path class="cls-1" d="M142.67,17.92h0a91,91,0,0,0-10.35-6.73,5.89,5.89,0,0,0-7.57,1.59L102.49,42.36l-1.59,2.11a12.1,12.1,0,0,1-10.26,4.77A39.74,39.74,0,0,0,49,91a4.36,4.36,0,0,0,2.49,3.78A10.48,10.48,0,1,1,39,97.88a6.56,6.56,0,0,0,1.41-4.65A48.54,48.54,0,0,1,88.5,40.4a9.09,9.09,0,0,0,7.17-3.62l20.5-27.24a3.82,3.82,0,0,0-2-5.95A89.15,89.15,0,0,0,34.56,159.66a90.07,90.07,0,0,0,11.29,7.44,5.88,5.88,0,0,0,7.53-1.61l22.26-29.58,1.59-2.11A12.11,12.11,0,0,1,87.5,129a37.46,37.46,0,0,0,4.37,0A39.76,39.76,0,0,0,129.1,87.24a4.37,4.37,0,0,0-2.5-3.77,10.48,10.48,0,1,1,12.57-3.08A6.66,6.66,0,0,0,137.76,85a48.54,48.54,0,0,1-48.13,52.83,9.05,9.05,0,0,0-7.16,3.62L62,168.73a3.81,3.81,0,0,0,1.95,5.94A89.15,89.15,0,0,0,142.67,17.92Z"/><path class="cls-1" d="M289.78,42.26V40.15A2.77,2.77,0,0,0,287,37.38H217.59a2.77,2.77,0,0,0-2.78,2.77v4.24a2.77,2.77,0,0,0,2.78,2.77h58.89a2.76,2.76,0,0,1,2.75,3.17,106.4,106.4,0,0,1-23,51.1,2.8,2.8,0,0,1-4.37-.05A96.82,96.82,0,0,1,233,59.76a2.76,2.76,0,0,0-3-2.26l-2.22.23-2,.21a2.76,2.76,0,0,0-2.44,3.24A110.79,110.79,0,0,0,245.69,109a2.77,2.77,0,0,1-.23,3.8c-19.36,17.75-36.76,21.64-43,22.48a2.78,2.78,0,0,0-2.41,2.77l0,4.27a2.77,2.77,0,0,0,3.07,2.75c7.4-.87,27.16-5.06,49-25.13a2.8,2.8,0,0,1,3.8,0,110.32,110.32,0,0,0,42.21,25,2.77,2.77,0,0,0,3.48-1.87l1.2-4.06A2.79,2.79,0,0,0,301,135.5,102.17,102.17,0,0,1,262.66,113a2.78,2.78,0,0,1-.19-3.85C289.45,77.6,289.78,43.8,289.78,42.26Z"/><path class="cls-1" d="M338,33h-4.23A2.77,2.77,0,0,0,331,35.72V50.57a2.78,2.78,0,0,1-2.78,2.77h-10a2.77,2.77,0,0,0-2.77,2.77v4.23a2.77,2.77,0,0,0,2.77,2.78h10A2.78,2.78,0,0,1,331,65.89V87.4a2.78,2.78,0,0,1-2.78,2.77h-10a2.77,2.77,0,0,0-2.77,2.77v4.24a2.77,2.77,0,0,0,2.77,2.77h10a2.78,2.78,0,0,1,2.78,2.77v20.34c0,4.41-1.77,11.61-13,12.57a2.79,2.79,0,0,0-2.59,2.76v4.22a2.77,2.77,0,0,0,3,2.77c10.93-.93,22.41-7.14,22.41-22.32V102.72a2.77,2.77,0,0,1,2.77-2.77h8.86a2.77,2.77,0,0,0,2.77-2.77V92.94a2.77,2.77,0,0,0-2.77-2.77h-8.86a2.77,2.77,0,0,1-2.77-2.77V65.89a2.77,2.77,0,0,1,2.77-2.77h8.86a2.77,2.77,0,0,0,2.77-2.78V56.11a2.77,2.77,0,0,0-2.77-2.77h-8.86a2.77,2.77,0,0,1-2.77-2.77V35.72A2.77,2.77,0,0,0,338,33Z"/><path class="cls-1" d="M360,141.94a2.77,2.77,0,0,0,2.77,2.77H394c13.82,0,25.06-10.72,25.06-23.89V55.17a2.77,2.77,0,0,0-2.77-2.77H362.8A2.77,2.77,0,0,0,360,55.17Zm34-7H372.58a2.78,2.78,0,0,1-2.77-2.78V102.72a2.77,2.77,0,0,1,2.77-2.77h34a2.77,2.77,0,0,1,2.77,2.77v18.1C409.33,128.6,402.47,134.94,394,134.94Zm15.29-70V87.4a2.77,2.77,0,0,1-2.78,2.77h-34a2.77,2.77,0,0,1-2.77-2.77V65a2.77,2.77,0,0,1,2.77-2.77h34A2.77,2.77,0,0,1,409.33,65Z"/><path class="cls-1" d="M402.58,32.87H375a2.77,2.77,0,0,0-2.77,2.78v4.23A2.77,2.77,0,0,0,375,42.65h27.59a2.78,2.78,0,0,0,2.78-2.77V35.65A2.78,2.78,0,0,0,402.58,32.87Z"/><path class="cls-1" d="M508.06,37.17H450.59A2.78,2.78,0,0,0,447.82,40v4.23A2.77,2.77,0,0,0,450.59,47h57.47a2.77,2.77,0,0,0,2.77-2.77V40A2.78,2.78,0,0,0,508.06,37.17Z"/><path class="cls-1" d="M483.5,86.2h40a2.77,2.77,0,0,0,2.77-2.77V79.19a2.77,2.77,0,0,0-2.77-2.77H435.1a2.77,2.77,0,0,0-2.77,2.77v4.24a2.77,2.77,0,0,0,2.77,2.77h27.37a2.77,2.77,0,0,1,2.31,4.3l-18.21,32.87a9.1,9.1,0,0,0-1.11,2.2,14.32,14.32,0,0,0,2,13.11,15.75,15.75,0,0,0,12.83,6.49h49.92a6.43,6.43,0,0,0,5.48-3,6.28,6.28,0,0,0,.39-6.07l-11.6-22.46a2.77,2.77,0,0,0-3.73-1.2l-3.76,2a2.77,2.77,0,0,0-1.2,3.73l6.83,13.23a2.77,2.77,0,0,1-2.47,4H460.25a5.87,5.87,0,0,1-4.88-2.4,4.56,4.56,0,0,1-.79-3.77,2.7,2.7,0,0,1,.37-.81l22.14-38.77A7.68,7.68,0,0,1,483.5,86.2Z"/></svg>